<?xml version="1.0" encoding="UTF-8" standalone="no"?>
<!-- Created with Inkscape (http://www.inkscape.org/) -->

<svg
   width="480mm"
   height="297mm"
   viewBox="0 0 480 297"
   version="1.1"
   id="svg212"
   inkscape:version="1.2.1 (9c6d41e410, 2022-07-14)"
   sodipodi:docname="logo-text.svg"
   xmlns:inkscape="http://www.inkscape.org/namespaces/inkscape"
   xmlns:sodipodi="http://sodipodi.sourceforge.net/DTD/sodipodi-0.dtd"
   xmlns:xlink="http://www.w3.org/1999/xlink"
   xmlns="http://www.w3.org/2000/svg"
   xmlns:svg="http://www.w3.org/2000/svg">
  <sodipodi:namedview
     id="namedview214"
     pagecolor="#505050"
     bordercolor="#eeeeee"
     borderopacity="1"
     inkscape:showpageshadow="0"
     inkscape:pageopacity="0"
     inkscape:pagecheckerboard="0"
     inkscape:deskcolor="#505050"
     inkscape:document-units="mm"
     showgrid="false"
     inkscape:zoom="0.78127806"
     inkscape:cx="1230.6758"
     inkscape:cy="254.71085"
     inkscape:window-width="2560"
     inkscape:window-height="1027"
     inkscape:window-x="1912"
     inkscape:window-y="-8"
     inkscape:window-maximized="1"
     inkscape:current-layer="layer1" />
  <defs
     id="defs209">
    <linearGradient
       id="linearGradient5355"
       inkscape:swatch="solid">
      <stop
         style="stop-color:#000000;stop-opacity:0;"
         offset="0"
         id="stop5353" />
    </linearGradient>
    <linearGradient
       inkscape:collect="always"
       xlink:href="#linearGradient5355"
       id="linearGradient5357"
       x1="75.502281"
       y1="12.32098"
       x2="99.502281"
       y2="12.32098"
       gradientUnits="userSpaceOnUse" />
    <linearGradient
       inkscape:collect="always"
       xlink:href="#linearGradient5355"
       id="linearGradient7677"
       gradientUnits="userSpaceOnUse"
       x1="75.502281"
       y1="12.32098"
       x2="99.502281"
       y2="12.32098"
       gradientTransform="matrix(0.83333335,0,0,0.83333332,-1.7691955,24.307204)" />
    <linearGradient
       inkscape:collect="always"
       xlink:href="#linearGradient5355"
       id="linearGradient7698"
       gradientUnits="userSpaceOnUse"
       x1="75.502281"
       y1="12.32098"
       x2="99.502281"
       y2="12.32098"
       gradientTransform="matrix(0.6249998,0,0,0.62499965,-1.9562979,44.693345)" />
  </defs>
  <g
     inkscape:label="Layer 1"
     inkscape:groupmode="layer"
     id="layer1">
    <rect
       style="fill:none;fill-opacity:0;stroke:none;stroke-width:0.263885"
       id="rect268"
       width="99.736115"
       height="99.736115"
       x="0.13194239"
       y="0.13194239" />
    <rect
       style="fill:#000000;fill-opacity:1;stroke:#084c4e;stroke-width:0.305681"
       id="rect1051"
       width="89.694321"
       height="89.694321"
       x="5.1528406"
       y="5.1528406"
       ry="12.813473"
       rx="12.813475" />
    <ellipse
       style="fill:url(#linearGradient7698);fill-opacity:1;stroke:#26c7cb;stroke-width:2;stroke-dasharray:none;stroke-opacity:1"
       id="path1592-9-3-4"
       cx="52.732605"
       cy="52.393951"
       rx="6.2499976"
       ry="6.2499962" />
    <circle
       style="fill:url(#linearGradient7677);fill-opacity:1;stroke:#26c7cb;stroke-width:2;stroke-dasharray:none;stroke-opacity:1"
       id="path1592-9-3-6"
       cx="71.149376"
       cy="34.574688"
       r="8.333333" />
    <circle
       style="fill:url(#linearGradient5357);fill-opacity:1;stroke:#26c7cb;stroke-width:2;stroke-dasharray:none;stroke-opacity:1"
       id="path1592-9-3"
       cx="87.502281"
       cy="12.32098"
       r="10" />
    <text
       xml:space="preserve"
       style="font-style:normal;font-variant:normal;font-weight:normal;font-stretch:normal;font-size:50.8px;line-height:1.25;font-family:'Gentium Basic';-inkscape-font-specification:'Gentium Basic, Normal';font-variant-ligatures:normal;font-variant-caps:normal;font-variant-numeric:normal;font-variant-east-asian:normal;fill:#ffd1ff;fill-opacity:1;stroke:none;stroke-width:2;stroke-dasharray:none;stroke-opacity:1"
       x="15.23945"
       y="38.606609"
       id="text1480"
       inkscape:label="text1480"><tspan
         sodipodi:role="line"
         id="tspan1478"
         style="font-style:normal;font-variant:normal;font-weight:normal;font-stretch:normal;font-size:50.8px;font-family:'Gentium Basic';-inkscape-font-specification:'Gentium Basic, Normal';font-variant-ligatures:normal;font-variant-caps:normal;font-variant-numeric:normal;font-variant-east-asian:normal;fill:#ffd1ff;fill-opacity:1;stroke:none;stroke-width:2;stroke-dasharray:none;stroke-opacity:1"
         x="15.23945"
         y="38.606609">&gt;</tspan></text>
    <g
       aria-label="Bubble Prompt "
       transform="matrix(0.59938658,0,0,0.74488826,41.487976,13.104537)"
       id="text9897"
       style="font-size:88.5939px;line-height:1.25;font-family:'Berlin Sans FB Demi';-inkscape-font-specification:'Berlin Sans FB Demi, Normal';fill:#3c2f7c;stroke-width:2.21341">
      <path
         d="m 157.94479,56.092261 q 0,7.959608 -4.97476,13.193916 -5.66689,6.012965 -19.89902,6.012965 -1.08147,0 -3.11463,-0.04326 -2.07642,0 -3.07137,0 -15.96247,0 -18.99058,-0.648881 -1.25451,-0.259552 -1.25451,-1.341021 0,-4.628685 0.51911,-14.015832 0.56236,-9.387147 0.56236,-14.059091 0,-5.018014 -0.5191,-18.860812 -0.12978,-3.547216 -0.47585,-10.64165 l -0.0433,-0.605622 q -0.0433,-0.821916 1.34102,-0.994951 1.42754,-0.173035 10.03603,-0.173035 13.79954,0 16.13551,0.08652 10.64165,0.389329 15.70292,3.460699 6.70511,4.109581 6.70511,13.886056 0,2.552266 -1.55732,5.407343 -1.12472,2.033161 -2.94159,4.066322 -1.60057,1.773608 -1.60057,1.643832 0,0.302811 1.12472,0.951692 3.02812,1.73035 4.75846,5.493861 1.55732,3.374181 1.55732,7.180951 z M 139.34353,31.737589 q 0,-3.720252 -3.72025,-4.931496 -2.07642,-0.648882 -6.83488,-0.648882 -4.67195,0 -4.67195,0.69214 0,0.821916 -0.17303,2.509007 -0.12978,1.643833 -0.12978,2.465749 0,4.325874 0.7354,4.844979 0.47585,0.389328 5.49386,0.389328 9.30063,0 9.30063,-5.320825 z m 1.29776,24.181637 q 0,-3.893287 -3.2444,-5.277567 -2.07642,-0.865175 -6.74837,-0.865175 -5.58037,0 -6.05622,0.432588 -0.47585,0.389328 -0.47585,5.277566 0,5.104532 0.56237,5.666895 0.56236,0.519105 6.22926,0.519105 4.67194,0 6.57532,-0.735398 3.15789,-1.254504 3.15789,-5.018014 z"
         id="path19833" />
      <path
         d="m 207.64909,35.457841 q 0,3.201147 -0.30282,9.603441 -0.30281,6.402293 -0.30281,9.60344 0,3.11463 0.2163,9.343888 0.21629,6.229259 0.21629,9.30063 0,1.167986 -1.08147,1.470797 -1.64383,0.432587 -6.96466,0.432587 -4.7152,0 -6.57532,-0.259552 -0.82192,-0.129776 -1.03821,-1.03821 -0.12978,-1.297762 -0.25956,-2.595524 -0.21629,-1.989903 -0.60562,-1.989903 0.60562,0 -4.36913,2.941595 -4.97476,2.941594 -9.04108,2.941594 -11.46357,0 -13.58324,-10.338839 -0.9517,-4.80172 -0.9517,-13.929315 0,-9.862993 1.60058,-15.573147 0.47584,-1.773608 1.77361,-1.773608 1.9899,0 6.05622,0.04326 4.06632,0.04326 6.05622,0.04326 1.34102,0 1.34102,1.124727 0,0.302811 -0.0865,0.908433 -0.90844,5.883189 -0.90844,11.939413 0,7.527021 0.47585,10.29558 0.77866,4.758462 5.66689,4.758462 1.90339,0 4.10958,-1.687091 2.24946,-1.687091 2.33598,-3.503958 0.0865,-1.600573 0.0865,-21.715888 0,-1.427539 0.2163,-1.687091 0.25955,-0.432587 1.55731,-0.432587 2.11968,0 6.35904,0.04326 4.28261,0.04326 6.40229,0.04326 1.29776,0 1.51406,0.648881 0.0865,0.34607 0.0865,1.03821 z"
         id="path19835" />
      <path
         d="m 261.67925,53.626512 q 0,9.084336 -5.19105,15.183819 -5.53712,6.488811 -14.44842,6.488811 -6.48881,0 -10.46862,-3.720252 -0.30281,-0.259552 -0.5191,-0.259552 -0.43259,0 -0.82192,1.600573 -0.34607,1.600573 -0.86517,1.773608 -0.7354,0.216294 -12.32874,0.216294 -2.7253,0 -2.7253,-0.994951 0,-0.129776 0.0865,-0.648881 0.86518,-6.87814 0.86518,-26.214797 0,-18.471483 -1.29776,-32.141245 l -0.0433,-0.475846 q 0,-0.69214 1.34102,-0.778658 0.95169,-0.04326 7.52702,-0.648881 4.62868,-0.432587 7.52702,-0.432587 0.82192,0 0.82192,1.427538 0,1.687091 -0.2163,4.45565 -0.25955,3.417441 -0.30281,4.49891 -0.21629,4.282615 -0.21629,11.67986 0,1.341021 0.69214,1.341021 0.34607,0 0.64888,-0.34607 3.89329,-4.152839 10.20906,-4.152839 9.47367,0 14.79449,6.445552 4.9315,5.969706 4.9315,15.702923 z m -15.65967,-0.475846 q 0,-3.590475 -2.20619,-6.056224 -2.2062,-2.509007 -5.75341,-2.509007 -3.63374,0 -5.75342,2.509007 -2.07642,2.465749 -2.07642,6.142742 0,3.806769 2.03316,6.142741 2.16294,2.465748 5.88319,2.465748 3.677,0 5.83993,-2.552266 2.03316,-2.37923 2.03316,-6.142741 z"
         id="path19837" />
      <path
         d="m 313.84929,53.626512 q 0,9.084336 -5.19105,15.183819 -5.53712,6.488811 -14.44842,6.488811 -6.48881,0 -10.46861,-3.720252 -0.30281,-0.259552 -0.51911,-0.259552 -0.43258,0 -0.82191,1.600573 -0.34607,1.600573 -0.86518,1.773608 -0.7354,0.216294 -12.32874,0.216294 -2.7253,0 -2.7253,-0.994951 0,-0.129776 0.0865,-0.648881 0.86517,-6.87814 0.86517,-26.214797 0,-18.471483 -1.29776,-32.141245 l -0.0433,-0.475846 q 0,-0.69214 1.34102,-0.778658 0.95169,-0.04326 7.52702,-0.648881 4.62869,-0.432587 7.52702,-0.432587 0.82192,0 0.82192,1.427538 0,1.687091 -0.21629,4.45565 -0.25956,3.417441 -0.30281,4.49891 -0.2163,4.282615 -0.2163,11.67986 0,1.341021 0.69214,1.341021 0.34607,0 0.64888,-0.34607 3.89329,-4.152839 10.20907,-4.152839 9.47366,0 14.79449,6.445552 4.93149,5.969706 4.93149,15.702923 z m -15.65966,-0.475846 q 0,-3.590475 -2.2062,-6.056224 -2.20619,-2.509007 -5.75341,-2.509007 -3.63374,0 -5.75341,2.509007 -2.07642,2.465749 -2.07642,6.142742 0,3.806769 2.03316,6.142741 2.16293,2.465748 5.88319,2.465748 3.67699,0 5.83993,-2.552266 2.03316,-2.37923 2.03316,-6.142741 z"
         id="path19839" />
      <path
         d="m 334.87304,48.738275 q 0,11.809636 0.0865,18.125412 0,0.994951 0.12978,3.417441 0.12977,2.206196 0.12977,3.41744 0,0.908434 -1.08147,1.081469 -1.94664,0.34607 -7.00791,0.34607 -5.19105,0 -6.61859,-0.34607 -0.95169,-0.216294 -1.08147,-1.167986 0,-0.129776 0,-1.860126 0,-3.850028 0.0865,-11.506825 0.0865,-7.700056 0.0865,-11.506825 0,-18.168672 0.0433,-16.568098 -0.12978,-9.560182 -1.08147,-16.481581 -0.0865,-0.475846 -0.0865,-0.735399 0,-0.951692 1.12473,-0.951692 h 15.44337 q 1.08147,0 0.99495,0.908434 l -0.0433,0.778657 Q 334.873,34.376372 334.873,48.738275 Z"
         id="path19841" />
      <path
         d="m 382.4144,51.29054 q 0,4.369133 -2.81181,4.974756 -0.47585,0.08652 -8.95456,0.951692 -5.10454,0.562364 -15.22708,1.341021 0.60562,2.811818 3.67699,4.282615 2.50901,1.211245 5.71016,1.211245 3.85002,0 7.74331,-2.07642 1.64383,-1.038209 3.28767,-2.076419 0.90843,0.432587 3.02811,4.412391 2.16293,3.979805 2.16293,5.061273 0,0.302811 -0.64888,0.994951 -5.27756,5.666895 -16.39506,5.666895 -10.29558,0 -16.61136,-6.012965 -6.48881,-6.099482 -6.48881,-16.308545 0,-9.949511 5.79667,-16.308546 5.96971,-6.575328 15.8327,-6.575328 8.30568,0 14.10235,6.056223 5.79667,6.056224 5.79667,14.405161 z m -15.14056,-2.638783 q 0,-2.682042 -1.90338,-4.715203 -1.90338,-2.033161 -4.54217,-2.033161 -2.7253,0 -4.49891,2.292714 -1.64383,2.119678 -1.64383,4.974755 0,1.167986 1.21125,1.167986 3.20114,0 9.94951,-0.994951 1.42753,-0.216294 1.42753,-0.69214 z"
         id="path19843" />
      <path
         d="m 461.44812,37.231449 q 0,10.468616 -5.49386,16.957427 -5.88319,6.87814 -16.22203,6.87814 -1.73035,0 -5.23431,-0.173035 -3.4607,-0.216294 -5.19105,-0.216294 -1.86012,0 -1.86012,1.600574 0,1.989902 0.38932,5.926447 0.38933,3.936546 0.38933,5.883189 0,0.994951 -0.90843,0.994951 -2.63878,0 -7.91635,-0.173035 -5.27757,-0.129776 -7.91635,-0.129776 -1.2545,0 -1.2545,-1.254504 0,-4.80172 0.12977,-14.40516 0.17304,-9.6467 0.17304,-14.44842 0,-13.583245 -1.16799,-28.55077 l -0.0433,-0.605622 q -0.0865,-0.821916 1.29777,-0.994951 3.37418,-0.432587 14.881,-0.432587 6.79163,0 13.02088,0.173035 10.25233,0.302811 16.52484,6.445552 6.4023,6.315776 6.4023,16.524839 z m -17.26024,0.69214 q 0,-10.079287 -9.81974,-10.079287 -6.92139,0 -7.26746,0.778658 -0.30281,0.562363 -0.30281,9.992769 0,1.341021 0.0865,3.979804 0.12978,2.595525 0.12978,3.936546 0,0.865175 7.78657,0.865175 9.38715,0 9.38715,-9.473665 z"
         id="path19845" />
      <path
         d="m 495.75231,47.829841 q 0,1.687091 -1.86013,1.687091 -0.82192,0 -2.42249,-0.08652 -1.55731,-0.129776 -2.33597,-0.129776 -3.59048,0 -4.88824,1.124727 -1.29776,1.124728 -1.29776,4.542168 0,1.860126 0.0433,5.666895 0.0865,3.763511 0.0865,5.623637 0,1.254503 0.17303,3.76351 0.17304,2.465749 0.17304,3.676993 0,1.03821 -1.42754,1.167986 -2.07642,0.173035 -6.35904,0.173035 -4.10958,0 -6.57533,-0.259552 -1.42754,-0.173035 -1.42754,-1.427539 0,-3.460699 0.0433,-10.338839 0.0433,-6.921398 0.0433,-10.382098 0,-10.165804 -1.86012,-16.741133 -0.0865,-0.389328 -0.0865,-0.648881 0,-0.648881 0.64888,-0.865175 2.37923,-0.259552 6.96466,-0.951692 6.83488,-1.341021 7.05117,-1.341021 0.77866,0 0.99495,2.725301 0.2163,2.7253 0.77866,2.7253 -0.60562,0 3.54722,-2.249454 4.15284,-2.292713 8.00286,-2.292713 2.42249,0 2.42249,1.038209 0,1.254504 -0.25955,3.547217 -0.25955,2.465749 -0.30281,3.547217 0,1.254504 0.0433,3.330923 0.0865,2.552266 0.0865,3.374182 z"
         id="path19847" />
      <path
         d="m 542.42849,53.496736 q 0,9.862993 -6.05622,16.005734 -6.01297,6.142742 -15.8327,6.142742 -9.51692,0 -15.65967,-6.056224 -6.14274,-6.056224 -6.14274,-15.573147 0,-10.036028 5.88319,-16.265287 5.88319,-6.272517 15.91922,-6.272517 9.77647,0 15.8327,6.142741 6.05622,6.099483 6.05622,15.875958 z m -14.18887,0 q 0,-3.41744 -2.11967,-6.012965 -2.11968,-2.638783 -5.49386,-2.638783 -3.41744,0 -5.62364,2.682042 -2.07642,2.509007 -2.07642,5.969706 0,3.503958 2.07642,6.012965 2.2062,2.682042 5.62364,2.682042 3.37418,0 5.58037,-2.682042 2.03316,-2.509007 2.03316,-6.012965 z"
         id="path19849" />
      <path
         d="m 616.79026,73.179463 q 0,1.514056 -1.29776,1.687091 -1.29776,0.173035 -6.40229,0.173035 -5.27757,0 -6.57533,-0.259552 -1.29776,-0.259553 -1.29776,-2.119678 0,-1.989903 0.12977,-5.926448 0.12978,-3.979804 0.12978,-5.969706 0,-7.57028 -0.17304,-10.771427 -0.25955,-5.14779 -4.88823,-5.14779 -2.03316,0 -4.06633,1.730349 -1.9899,1.687091 -2.20619,3.763511 -0.17304,1.816867 -0.17304,10.64165 0,2.033161 0.12978,6.186 0.12978,4.109581 0.12978,6.186 0,1.427539 -1.25451,1.427539 h -13.1074 q -1.21124,0 -1.21124,-1.773608 0,-2.033161 0.12978,-6.099483 0.12977,-4.066322 0.12977,-6.142741 0,-1.600574 -0.0865,-4.844979 -0.0865,-3.244406 -0.0865,-4.888238 0,-6.186 -4.71521,-6.186 -1.90338,0 -4.10958,1.470797 -2.42249,1.600573 -2.42249,3.374182 0,3.936545 0.0433,11.766378 0.0433,7.829832 0.0433,11.723118 0,1.081469 -0.25955,1.341021 -0.25955,0.259553 -1.34102,0.34607 -1.94665,0.173035 -6.14274,0.173035 -2.7253,0 -6.186,-0.259552 -1.03821,-0.08652 -1.25451,-0.302811 -0.17303,-0.216294 -0.17303,-1.297763 0,-3.460699 0.0433,-10.338839 0.0433,-6.921398 0.0433,-10.382098 0,-7.094433 -1.03821,-15.962475 -0.0865,-0.519105 -0.0865,-0.778658 0,-0.735398 0.60562,-0.994951 0.95169,-0.389328 3.59048,-0.648881 3.2444,-0.302811 3.85002,-0.389328 0.43259,-0.08652 3.41745,-0.908434 2.11967,-0.605622 3.41744,-0.605622 0.82191,0 0.86517,3.028111 0.0433,2.984854 0.34607,2.984854 0.43259,-0.173035 0.99495,-0.605623 3.89329,-3.028112 6.14274,-4.152839 3.33093,-1.600573 7.22421,-1.600573 3.97981,0 7.09444,1.773608 3.50395,1.989902 4.54216,5.580378 2.29272,-3.11463 6.31578,-5.234308 4.02306,-2.119678 7.82983,-2.119678 5.71016,0 9.30063,2.638783 4.06632,2.984853 4.06632,8.521972 0,2.292713 -0.12977,6.921399 -0.12978,4.585426 -0.12978,6.878139 0,2.725301 0.12978,8.219161 0.12977,5.450602 0.12977,8.175902 z"
         id="path19851" />
      <path
         d="m 672.72381,53.972582 q 0,9.257371 -5.45061,15.356853 -5.62363,6.315777 -14.75123,6.315777 -3.33092,0 -7.13769,-1.643832 -3.80677,-1.643833 -3.4607,-1.643833 -0.56236,0 -0.56236,1.297763 0,2.206195 0.21629,6.618587 0.2163,4.45565 0.2163,6.661846 0,1.38428 -1.42754,1.38428 l -8.82479,0.04326 q -2.98485,0 -3.85002,-0.216294 -1.29777,-0.302811 -1.29777,-1.600573 l 0.0865,-33.309231 q 0,-10.079287 -1.51406,-17.000686 -0.0865,-0.432587 -0.0865,-0.735398 0,-0.648881 0.5191,-0.865175 1.68709,-0.648881 6.44555,-1.38428 4.62869,-0.735399 6.70511,-0.735399 1.68709,0 1.90338,2.249455 0.25956,2.206196 0.60563,2.206196 -0.43259,0 3.67699,-2.335972 4.15284,-2.379231 7.52702,-2.379231 9.38715,0 15.01078,6.186 5.45061,5.969706 5.45061,15.529888 z m -16.049,-0.08652 q 0,-3.4607 -2.11968,-6.056224 -2.29271,-2.725301 -5.66689,-2.725301 -3.4607,0 -5.53712,2.725301 -1.81687,2.465748 -1.81687,6.056224 0,3.676993 1.90339,6.099482 2.03316,2.638784 5.62363,2.638784 7.61354,0 7.61354,-8.738266 z"
         id="path19853" />
      <path
         d="m 707.28752,62.105226 q 0,1.297762 -0.34607,3.936545 -0.30281,2.638783 -0.30281,3.893287 0,1.211245 -0.25955,1.557315 -0.25955,0.34607 -1.42754,0.994951 -5.58038,3.07137 -12.372,3.07137 -12.50177,0 -12.50177,-9.560182 0,-2.855077 0.21629,-8.56523 0.21629,-5.753413 0.21629,-8.60849 0,-1.903385 -2.20619,-1.903385 -0.17304,0 -0.56237,0 -0.38932,0.04326 -0.56236,0.04326 -1.64383,0 -1.64383,-1.167986 0,-0.69214 0.0865,-2.119678 0.12977,-1.427539 0.12977,-2.119679 0,-0.908433 -0.12977,-2.768559 -0.0865,-1.860126 -0.0865,-2.768559 0,-0.865175 2.76856,-0.951693 1.55731,-0.04326 1.68709,-0.865175 0.25955,-1.643832 0.17303,-5.191049 -0.17303,-5.580377 -0.17303,-5.320825 0,-5.018014 0.95169,-5.018014 1.16799,0 3.33092,0.519105 2.46575,0.562364 3.41744,0.648881 2.2062,0.302811 6.66185,0.821916 1.08147,0.08652 1.08147,0.735399 0,1.73035 -0.30281,5.234308 -0.25955,3.503958 -0.25955,5.277566 0,2.119678 1.2545,2.119678 1.51405,0 4.58543,-0.129776 3.07137,-0.129776 4.62868,-0.129776 0.95169,0 0.95169,0.648881 0,0.994951 -0.21629,2.984853 -0.21629,1.989902 -0.21629,2.984853 0,1.03821 0.0432,3.028112 0.0433,1.989902 0.0433,3.028112 0,0.908434 -1.2545,0.908434 -0.86518,0 -2.89834,-0.04326 -2.03316,-0.08652 -2.89833,-0.08652 h -3.24441 q -0.64888,0 -0.64888,1.903384 0,1.03821 0,3.071371 0.0433,2.076419 0.0433,3.071371 0,3.633734 0.82192,5.018014 1.16798,1.860125 4.58542,1.860125 1.08147,0 3.07137,-0.475846 2.03316,-0.519105 2.85508,-0.519105 0.90843,0 0.90843,0.951693 z"
         id="path19855" />
    </g>
  </g>
</svg>
